# xmcd CD database file generated by OrangeCD 5.2
#
# Track frame offsets:
#	182
#	15070
#	29262
#	42160
#	58397
#	75140
#	93735
#	108447
#	120022
#	134885
#
# Disc length: 2146 seconds
#
# Revision: 6
# Processed by: cddbd v1.5.1PL0 Copyright (c) Steve Scherf et al.
# Submitted via: OrangeCD 5.2
#
DISCID=7308600a
DTITLE=Confederate Railroad - Keep On Rockin'
DYEAR=1998
DGENRE=Country
TTITLE0=Keep On Rockin'
TTITLE1=I Hate Rap
TTITLE2=Sunday Morning And Saturday Night
TTITLE3=I Don't Want To Hang Out With Me
TTITLE4=A Bible And A Bus Ticket Home
TTITLE5=Good Ol' Boy (Gettin' Tough)
TTITLE6=Cowboy Cadillac
TTITLE7=The Big One
TTITLE8=Momma Ain't Home Tonight
TTITLE9=Simple Man
EXTD=
EXTT0=
EXTT1=
EXTT2=
EXTT3=
EXTT4=
EXTT5=
EXTT6=
EXTT7=
EXTT8=
EXTT9=
PLAYORDER=
